<svg width="211" height="70" viewBox="0 0 211 70" fill="none" xmlns="http://www.w3.org/2000/svg">
<path d="M190.368 0H7C3.13401 0 0 3.13401 0 7V63C0 66.866 3.134 70 6.99999 70H172.186C175.219 70 177.907 68.0466 178.844 65.1617L197.025 9.16165C198.494 4.63912 195.122 0 190.368 0Z" fill="#161616"/>
<path d="M54.45 43V28.925H59.775C60.325 28.925 60.9167 28.9667 61.55 29.05C62.1833 29.1167 62.775 29.275 63.325 29.525C63.875 29.7583 64.325 30.125 64.675 30.625C65.025 31.125 65.2 31.8 65.2 32.65C65.2 33.1833 65.0917 33.6833 64.875 34.15C64.675 34.6 64.3 34.9667 63.75 35.25C63.2 35.5333 62.4167 35.6917 61.4 35.725V35.825C62.5833 35.8417 63.4917 36.0083 64.125 36.325C64.775 36.6417 65.225 37.0583 65.475 37.575C65.725 38.075 65.85 38.6333 65.85 39.25C65.85 40.1333 65.6583 40.825 65.275 41.325C64.8917 41.825 64.4 42.2 63.8 42.45C63.2 42.6833 62.5583 42.8333 61.875 42.9C61.2083 42.9667 60.575 43 59.975 43H54.45ZM56.5 34.925H59.525C60.2083 34.925 60.8167 34.8917 61.35 34.825C61.9 34.7417 62.3333 34.55 62.65 34.25C62.9667 33.95 63.125 33.4833 63.125 32.85C63.125 32.1667 62.9583 31.675 62.625 31.375C62.2917 31.0583 61.85 30.8583 61.3 30.775C60.75 30.6917 60.1667 30.65 59.55 30.65H56.5V34.925ZM56.5 41.3H59.8C60.5167 41.3 61.1667 41.2583 61.75 41.175C62.3333 41.075 62.8 40.8667 63.15 40.55C63.5167 40.2167 63.7 39.7 63.7 39C63.7 38.2833 63.5083 37.75 63.125 37.4C62.7583 37.05 62.2583 36.825 61.625 36.725C61.0083 36.6083 60.3333 36.55 59.6 36.55H56.5V41.3ZM71.3457 43.25C70.479 43.25 69.7874 43.0917 69.2707 42.775C68.7707 42.4417 68.3957 42.0083 68.1457 41.475C67.9124 40.9417 67.754 40.375 67.6707 39.775C67.604 39.175 67.5707 38.5917 67.5707 38.025V32.775H69.6207V38.025C69.6207 38.625 69.679 39.1833 69.7957 39.7C69.9124 40.2167 70.1457 40.6333 70.4957 40.95C70.8624 41.25 71.4124 41.4 72.1457 41.4C72.8457 41.4 73.3874 41.2417 73.7707 40.925C74.154 40.6083 74.4207 40.2 74.5707 39.7C74.7374 39.2 74.829 38.675 74.8457 38.125L74.8707 32.775H76.9957V43H75.2207L74.8707 40.875H74.8207C74.754 41.0917 74.5957 41.3917 74.3457 41.775C74.0957 42.1417 73.729 42.4833 73.2457 42.8C72.7624 43.1 72.129 43.25 71.3457 43.25ZM77.9988 47.65V46.025H79.4738C79.8238 46.025 80.1155 45.9417 80.3488 45.775C80.5822 45.625 80.8655 45.2083 81.1988 44.525L82.0738 42.6L78.0738 32.775H80.2238L83.0988 40.45L86.1738 32.775H88.3488L83.0988 44.75C82.7322 45.6 82.3988 46.2333 82.0988 46.65C81.7988 47.0667 81.4655 47.3333 81.0988 47.45C80.7322 47.5833 80.2738 47.65 79.7238 47.65H77.9988ZM105.608 28.925H107.733V43H103.808L97.883 29.85H97.833V43H95.708V28.925H99.383L105.558 42.075H105.608V28.925ZM114.852 43.25C113.152 43.25 111.885 42.7583 111.052 41.775C110.218 40.7917 109.802 39.5417 109.802 38.025C109.785 36.4917 110.202 35.2333 111.052 34.25C111.902 33.2667 113.168 32.7667 114.852 32.75C116.485 32.75 117.727 33.2333 118.577 34.2C119.427 35.1667 119.852 36.4417 119.852 38.025C119.852 39.0083 119.668 39.9 119.302 40.7C118.952 41.4833 118.402 42.1083 117.652 42.575C116.918 43.025 115.985 43.25 114.852 43.25ZM114.852 41.475C115.652 41.475 116.26 41.3 116.677 40.95C117.11 40.6 117.41 40.1583 117.577 39.625C117.743 39.075 117.827 38.5167 117.827 37.95C117.827 37.3833 117.743 36.8333 117.577 36.3C117.41 35.75 117.11 35.3 116.677 34.95C116.26 34.5833 115.652 34.4 114.852 34.4C114.035 34.4 113.41 34.5833 112.977 34.95C112.543 35.3 112.243 35.75 112.077 36.3C111.91 36.8333 111.827 37.3833 111.827 37.95C111.827 38.5167 111.91 39.075 112.077 39.625C112.243 40.1583 112.543 40.6 112.977 40.95C113.41 41.3 114.035 41.475 114.852 41.475ZM123.473 43L120.923 33.15V32.75H122.948L124.948 41.25H124.998L127.398 32.75H129.223L131.698 41.25H131.748L133.723 32.75H135.748V33.15L133.173 43H130.248L128.348 36.35H128.298L126.423 43H123.473Z" fill="white"/>
<circle cx="190" cy="37" r="21" fill="#FF6155"/>
<path d="M179.769 36.25C179.355 36.25 179.019 36.5858 179.019 37C179.019 37.4142 179.355 37.75 179.769 37.75L179.769 36.25ZM200.761 37.5303C201.054 37.2374 201.054 36.7626 200.761 36.4697L195.988 31.6967C195.695 31.4038 195.22 31.4038 194.928 31.6967C194.635 31.9896 194.635 32.4645 194.928 32.7574L199.17 37L194.928 41.2426C194.635 41.5355 194.635 42.0104 194.928 42.3033C195.22 42.5962 195.695 42.5962 195.988 42.3033L200.761 37.5303ZM179.769 37.75L200.231 37.75L200.231 36.25L179.769 36.25L179.769 37.75Z" fill="white"/>
</svg>
