<svg xmlns="http://www.w3.org/2000/svg" width="177" height="30" viewBox="0 0 177 30" fill="none">
<path d="M83.6846 2.45102C85.59 0.289723 88.5626 -0.533042 91.28 0.348716C93.9975 1.23047 95.9549 3.65292 96.2815 6.53847L96.5002 6.54291C98.6261 6.6293 101.057 7.98885 101.745 11.8126L102.858 20.6204C103.285 23.6794 102.729 26.0396 101.434 27.6086C100.139 29.1777 98.0163 29.9424 94.9609 29.9424H83.1668C80.7532 30.2507 78.3484 29.308 76.7607 27.4312C75.173 25.5543 74.6132 22.9927 75.2694 20.6072L75.3016 20.454C75.4548 19.9082 75.9842 19.5481 76.5511 19.6315C77.1696 19.7225 77.5986 20.3069 77.5092 20.9368C77.1046 22.6629 77.4591 24.4829 78.4802 25.9209C79.7346 27.1319 81.4292 27.7534 83.1538 27.635H94.9609C97.3042 27.635 98.9225 27.1339 99.7641 26.0923C100.606 25.0507 100.942 23.3102 100.606 20.9368L99.5051 12.2213C99.1167 10.1117 97.9127 8.79316 96.2815 8.79316H81.8333C80.2797 8.79316 79.0757 10.1117 78.5967 12.3136L78.286 14.2519C78.1433 14.8441 77.5748 15.2228 76.9848 15.1186C76.3949 15.0144 75.9848 14.4629 76.0462 13.8563L76.3699 11.8785C77.2244 7.857 79.7489 6.53847 81.8333 6.53847H93.977C93.7992 5.37001 93.2324 4.29931 92.3717 3.50584C90.3263 1.64284 87.1857 1.81988 85.3547 3.9014V4.03325L85.2278 4.15268C84.9588 4.36968 84.6049 4.4538 84.2645 4.37421C83.8673 4.28135 83.549 3.97978 83.4294 3.58309C83.3098 3.1864 83.4071 2.75485 83.6846 2.45102ZM93.3302 12.4852L93.498 12.5114C93.6669 12.5512 93.8286 12.618 93.977 12.7092C94.1094 12.8156 94.227 12.9398 94.3266 13.0784C94.3827 13.1423 94.4227 13.2193 94.4431 13.3025C94.4825 13.3811 94.5088 13.4657 94.5208 13.5531C94.5341 13.6404 94.5341 13.7294 94.5208 13.8168C94.5251 13.9897 94.4897 14.1613 94.4172 14.3178C94.3523 14.4878 94.2452 14.6377 94.1065 14.7529C93.8674 15.0014 93.5417 15.1435 93.2002 15.1485C93.0274 15.1415 92.8569 15.1059 92.6953 15.043C92.4254 14.8796 92.2229 14.6219 92.1257 14.3178C92.0572 14.1604 92.0261 13.9887 92.035 13.8168C92.0219 13.7294 92.0219 13.6405 92.035 13.5531V13.3025L92.1645 13.0784C92.2014 13.0016 92.2544 12.9341 92.3199 12.8806L92.5141 12.7092C92.5862 12.6593 92.6646 12.6194 92.7471 12.5905C92.825 12.5524 92.9078 12.5257 92.9931 12.5114C93.1592 12.472 93.3319 12.472 93.498 12.5114L93.3302 12.4852ZM85.0574 12.4984L85.2252 12.5246C85.311 12.5368 85.3941 12.5636 85.4712 12.6037C85.5508 12.6301 85.6252 12.6702 85.6913 12.7224C85.7689 12.7679 85.8388 12.8258 85.8984 12.8938C85.9639 12.9473 86.017 13.0148 86.0538 13.0916C86.1041 13.1618 86.1475 13.2368 86.1833 13.3157L86.2609 13.5662C86.268 13.654 86.268 13.7422 86.2609 13.83C86.2609 14.5582 85.6813 15.1485 84.9663 15.1485C84.6339 15.1367 84.3186 14.9951 84.086 14.7529C83.9634 14.6287 83.8666 14.4808 83.8011 14.3178C83.7392 14.1584 83.7084 13.9882 83.7105 13.8168C83.6971 13.7294 83.6971 13.6404 83.7105 13.5531C83.7225 13.4657 83.7488 13.3811 83.7882 13.3025C83.814 13.2215 83.8535 13.1457 83.9047 13.0784C83.9416 13.0016 83.9946 12.9341 84.0601 12.8806C84.1167 12.8184 84.1822 12.765 84.2543 12.7224C84.3203 12.6702 84.3948 12.6301 84.4743 12.6037C84.5514 12.5636 84.6346 12.5368 84.7203 12.5246C84.8864 12.4852 85.0592 12.4852 85.2252 12.5246L85.0574 12.4984Z" fill="#FF6155"/>
<path fill-rule="evenodd" clip-rule="evenodd" d="M162.842 1.01296C162.755 1.02541 162.497 1.06088 162.27 1.09175C160.972 1.26778 159.42 1.99948 158.364 2.93292C157.031 4.11194 156.091 5.80969 155.804 7.55429C155.701 8.18309 155.714 9.61092 155.829 10.1885C156.207 12.0929 157.279 13.8556 158.728 14.9542L159.088 15.2276L158.937 15.2851C158.303 15.5263 158.025 15.6478 157.487 15.9179C155.146 17.0923 153.242 18.8688 151.89 21.1394C150.782 22.9993 150.165 25.072 150.036 27.3667L150 28H151.061H152.123V27.7417C152.123 25.9538 152.866 23.4816 153.86 21.9629C155.395 19.6169 157.448 18.0076 159.952 17.1872C162.33 16.4079 164.67 16.4079 167.048 17.1872C169.552 18.0076 171.605 19.6169 173.14 21.9629C174.134 23.4816 174.877 25.9538 174.877 27.7417V28H175.939H177L176.964 27.3667C176.835 25.072 176.218 22.9993 175.11 21.1394C173.758 18.8688 171.854 17.0923 169.513 15.9179C168.975 15.6478 168.697 15.5263 168.063 15.2851L167.912 15.2276L168.272 14.9542C169.721 13.8556 170.793 12.0929 171.171 10.1885C171.286 9.61092 171.299 8.18309 171.196 7.55429C170.967 6.16181 170.27 4.69161 169.339 3.6377C168.188 2.33541 166.564 1.41548 164.873 1.10884C164.467 1.03507 163.128 0.971906 162.842 1.01296ZM164.391 3.17391C167.49 3.67739 169.607 6.60017 169.108 9.68464C168.605 12.7889 165.688 14.9103 162.609 14.4101C159.51 13.9066 157.393 10.9838 157.892 7.89935C158.395 4.79551 161.313 2.67377 164.391 3.17391Z" fill="#161616"/>
<path d="M23.6677 23.2066L27.7095 27.2463C27.898 27.4415 28.0023 27.7029 28 27.9742C27.9976 28.2455 27.8888 28.5051 27.6969 28.6969C27.5051 28.8888 27.2455 28.9976 26.9742 29C26.7029 29.0023 26.4415 28.898 26.2463 28.7095L22.2045 24.6677C19.5632 26.9306 16.1481 28.0826 12.6758 27.8819C9.20354 27.6812 5.94394 26.1434 3.58103 23.5911C1.21811 21.0389 -0.064444 17.6707 0.00249436 14.1933C0.0694327 10.7158 1.48066 7.39943 3.94005 4.94005C6.39943 2.48066 9.7158 1.06943 13.1933 1.00249C16.6707 0.935556 20.0389 2.21811 22.5911 4.58103C25.1434 6.94394 26.6812 10.2035 26.8819 13.6758C27.0826 17.1481 25.9306 20.5632 23.6677 23.2045V23.2066ZM13.4523 25.8349C16.4712 25.8349 19.3664 24.6357 21.501 22.501C23.6357 20.3664 24.8349 17.4712 24.8349 14.4523C24.8349 11.4335 23.6357 8.53826 21.501 6.40361C19.3664 4.26896 16.4712 3.06973 13.4523 3.06973C10.4335 3.06973 7.53826 4.26896 5.40361 6.40361C3.26896 8.53826 2.06973 11.4335 2.06973 14.4523C2.06973 17.4712 3.26896 20.3664 5.40361 22.501C7.53826 24.6357 10.4335 25.8349 13.4523 25.8349Z" fill="#161616"/>
</svg>